<svg xmlns="http://www.w3.org/2000/svg" viewBox="0 0 2500 2500"><defs><style>.cls-1{fill:#fff;}</style></defs><g id="Layer_2" data-name="Layer 2"><g id="Layer_1-2" data-name="Layer 1"><path class="cls-1" d="M1250,0C559.64,0,0,559.64,0,1250S559.64,2500,1250,2500s1250-559.64,1250-1250S1940.35,0,1250,0ZM916.5,1854.31H642.05V967.65H916.5ZM778,851.53c-89.63,0-162.29-73.26-162.29-163.61S688.34,524.31,778,524.31s162.29,73.25,162.29,163.61S867.59,851.53,778,851.53ZM1945,1854.31H1671.88V1388.89c0-127.66-48.49-198.91-149.43-198.91-109.86,0-167.25,74.21-167.25,198.91v465.42H1092V967.65H1355.2v119.41s79.18-146.46,267.19-146.46S1945,1055.4,1945,1292.89v561.42Z"/></g></g></svg>