<svg xmlns="http://www.w3.org/2000/svg" viewBox="0 0 2931 2931"><defs><style>.cls-1{fill:#fff;}</style></defs><g id="Layer_2" data-name="Layer 2"><g id="Layer_1-2" data-name="Layer 1"><path class="cls-1" d="M1465.5,0C656.1,0,0,656.1,0,1465.5S656.1,2931,1465.5,2931,2931,2274.9,2931,1465.5,2274.9.1,1465.5,0Zm672.1,2113.6A91.28,91.28,0,0,1,2012,2144c-344.1-210.3-777.3-257.8-1287.4-141.3a91.35,91.35,0,1,1-40.7-178.1C1242.1,1697.1,1721,1752,2107.3,1988,2150.3,2014.5,2164,2070.6,2137.6,2113.6Zm179.3-398.9a114.34,114.34,0,0,1-157.2,37.6c-393.8-242.1-994.4-312.2-1460.3-170.8A114.23,114.23,0,1,1,633,1362.9c532.2-161.5,1193.9-83.3,1646.2,194.7,53.8,33.1,70.8,103.4,37.7,157.1Zm15.4-415.6c-472.4-280.5-1251.6-306.3-1702.6-169.5-72.4,22-149-18.9-170.9-91.3a137.17,137.17,0,0,1,91.4-171c517.7-157.1,1378.2-126.8,1922,196a137.09,137.09,0,0,1-139.9,235.8Z"/></g></g></svg>